<?xml version="1.0" standalone="no"?>
<!DOCTYPE svg PUBLIC "-//W3C//DTD SVG 20010904//EN"
 "http://www.w3.org/TR/2001/REC-SVG-20010904/DTD/svg10.dtd">
<svg version="1.0" xmlns="http://www.w3.org/2000/svg"
 width="400.000000pt" height="400.000000pt" viewBox="0 0 400.000000 400.000000"
 preserveAspectRatio="xMidYMid meet">
<metadata>
Created by potrace 1.11, written by Peter Selinger 2001-2013
</metadata>
<g transform="translate(0.000000,400.000000) scale(0.100000,-0.100000)"
fill="#000000" stroke="none">
<path d="M0 2000 l0 -2000 2000 0 2000 0 0 2000 0 2000 -2000 0 -2000 0 0
-2000z m2374 1449 c22 -6 56 -28 80 -53 51 -50 71 -112 63 -189 -9 -84 -729
-2268 -767 -2327 -59 -93 -168 -174 -273 -205 -69 -20 -1062 -23 -1054 -2 5
14 461 1406 542 1655 l56 172 221 0 220 0 -5 23 c-3 12 -38 204 -77 427 -66
374 -71 409 -60 458 l11 52 502 0 c326 0 516 -4 541 -11z m798 -544 c-1 -297
-5 -926 -9 -1397 l-6 -858 -224 0 -223 0 0 290 0 290 -178 0 -177 0 -98 -295
-99 -295 -223 0 -222 0 138 423 c76 232 282 861 457 1397 l319 975 244 5 c134
4 257 6 273 5 l30 0 -2 -540z"/>
<path d="M1326 2078 c-170 -519 -311 -951 -314 -961 -4 -16 10 -17 189 -17
l194 0 309 943 c170 518 311 950 314 960 4 16 -10 17 -190 17 l-194 0 -308
-942z"/>
<path d="M2622 2109 c-67 -233 -122 -427 -122 -431 0 -5 50 -8 110 -8 l110 0
0 51 c0 29 7 202 16 385 8 183 14 354 12 380 -3 40 -21 -15 -126 -377z"/>
</g>
</svg>
